<svg xmlns="http://www.w3.org/2000/svg" width="1678" height="838" viewBox="0 0 1678 838">
    <path fill-rule="evenodd" d="M515.455 803.373V838l-29.954-17.312 29.954-17.315zm24.71.216l29.589 17.1-29.59 17.098v-34.198zm-132.822 1.473l27.03 15.626-27.03 15.623v-31.249zm240.414.698v29.853l-25.832-14.925 25.832-14.928zm-267.922.985v27.88l-24.123-13.937 24.123-13.943zm296.747 1.592l21.37 12.351-21.37 12.35v-24.7zm-399.801 2.13l17.684 10.221-17.684 10.215v-20.436zm-33.521 1.298v17.843l-15.434-8.92 15.434-8.923zm-232.268 1.411l13 7.512-13 7.515v-15.027zm133.79.199l12.65 7.313-12.65 7.31v-14.623zm-36.246.204v14.215l-12.294-7.106 12.294-7.109zm668.293.164v13.882l-12.014-6.937 12.014-6.945zm37.93 2.39l7.872 4.555-7.872 4.552v-9.107zm92.037 4.035v1.037l-.902-.517.902-.52zM471.29 761.424l35.697 20.634-35.697 20.623v-41.257zm112.758.275v40.713l-35.222-20.354 35.222-20.36zm-134.01.581v39.553l-34.22-19.775 34.22-19.778zm155.868.763l32.89 19.015-32.89 19.004v-38.019zm-265.841 2.63l28.342 16.385-28.342 16.374v-32.76zm-26.864 2.086v28.599l-24.744-14.3 24.744-14.3zm400.663.628v27.337l-23.65-13.666 23.65-13.671zm-504.636 2.203l19.832 11.468-19.832 11.457V770.59zm535.147.771l18.499 10.697-18.499 10.686V771.36zm-566.952.036v21.314l-18.437-10.653 18.437-10.661zm-133.674 0v21.314l-18.437-10.653 18.437-10.661zm32.502.417l17.722 10.244-17.722 10.238v-20.482zm766.363 5.11v10.256l-8.867-5.122 8.867-5.133zm40.11 2.54l4.484 2.594-4.483 2.583v-5.177zm-363.429-60.015v47.948l-41.48-23.974 41.48-23.974zm16.958.09l41.328 23.884-41.328 23.88V719.54zm-132.723 1.657l38.465 22.227-38.465 22.232v-44.459zm247.711 1.257v41.94l-36.284-20.97 36.284-20.97zm-267.71.61v40.716l-35.215-20.356 35.216-20.36zm289.714 2.224l31.378 18.136-31.378 18.136v-36.272zm-400.07 1.665l28.492 16.47-28.492 16.471v-32.94zm-26.396 1.455v30.037l-25.982-15.021 25.982-15.016zm-239.886.398l25.293 14.618L6.894 758.04v-29.236zm105.412.984v27.267l-23.591-13.633 23.591-13.634zm28.83 0l23.59 13.634-23.59 13.633V729.79zm638.45 1.905v23.457L759.3 743.423l20.288-11.729zm32.853 3.156l14.827 8.573-14.827 8.572V734.85zm95.76 5.622v5.902l-5.11-2.951 5.11-2.951zm42.347 2.065l1.53.886-1.53.882v-1.768zm-482.571-64.131l45.65 26.387-45.65 26.384v-52.771zm119.393.283v52.205l-45.166-26.101 45.166-26.104zm-133.98.517v51.174l-44.27-25.587 44.27-25.587zm149.259.927l42.659 24.66-42.66 24.658v-49.318zm-266.04 2.273l38.724 22.387-38.724 22.384v-44.771zm-19.838 1.905v40.964l-35.441-20.482 35.44-20.482zm400.166 1.493v37.975l-32.85-18.986 32.85-18.989zm-668.868.839v36.298l-31.396-18.148 31.396-18.15zm157.452.263l30.955 17.887-30.955 17.885v-35.772zm-133.443.397l30.257 17.49-30.257 17.49v-34.98zm109.12.298v34.381l-29.742-17.189 29.741-17.192zm560.267 1.446l27.24 15.746-27.24 15.746v-31.492zm103.361 6.788v17.914l-15.492-8.956 15.492-8.958zm36.022 3.109l10.119 5.849-10.119 5.847v-11.696zm93.169 4.669v2.352l-2.037-1.172 2.037-1.18zm-452.019-66.104v57.306l-49.579-28.652 49.58-28.654zm11.654.248l49.139 28.406-49.139 28.395v-56.8zm-132.8 1.52l46.514 26.886-46.515 26.884v-53.77zm253.139 1.145v51.474l-44.527-25.733 44.527-25.741zm-267.476.213v51.05l-44.156-25.522 44.156-25.528zm284.001 2.653l39.571 22.875-39.57 22.873v-45.748zm-400.726.52l38.663 22.355-38.663 22.347v-44.702zm-267.304.088l38.52 22.267-38.52 22.259v-44.526zm247.903.99v42.551l-36.812-21.274 36.812-21.277zm-134.015.59v41.365l-35.788-20.678 35.788-20.686zm20.912.363l35.152 20.324-35.152 20.316v-40.64zm644.947 4.006v32.628l-28.226-16.31 28.226-16.318zm27.727 3.448l22.266 12.87-22.266 12.865v-25.735zm100.11 6.676v12.38l-10.709-6.186 10.708-6.194zm38.917 2.595l6.225 3.6-6.225 3.596v-7.196zm91.403 3.222v.748l-.645-.37.645-.378zm-574.225-67.78l51.084 29.519-51.084 29.53v-59.05zm123.047.216v58.612l-50.706-29.31 50.706-29.302zm-133.998.56v57.49l-49.74-28.747 49.74-28.742zm145.488.72l48.493 28.023L600.7 655.56V599.5zm-266.443 1.574l45.773 26.449-45.773 26.46v-52.909zm-14.815 1.333v50.24l-43.458-25.124 43.458-25.116zm-267.671.549v49.137l-42.507-24.57 42.507-24.567zm16.686.803l41.126 23.764L68.457 651.3V603.76zm133.945.477l40.303 23.287-40.303 23.299v-46.586zm-17.85.274v46.028l-39.822-23.015 39.822-23.013zm534.698.02v45.997l-39.796-23.004 39.796-22.992zm19.867 3.186l34.28 19.807-34.28 19.819v-39.626zm107.89 7.07v25.485l-22.044-12.748 22.044-12.736zm31.825 3.399l16.164 9.338-16.164 9.35v-18.688zm96.838 5.294v8.102l-7.002-4.058 7.002-4.044zm40.84 1.642l4.162 2.402-4.162 2.407v-4.809zm90.645 2.153v.497l-.43-.248.43-.249zm-584.315-68.49v60.227l-52.11-30.118 52.11-30.11zm9.824 0l52.1 30.11-52.1 30.117v-60.228zm-132.889 1.358l49.737 28.751-49.737 28.748v-57.499zm255.413.944v55.614l-48.12-27.807 48.12-27.807zm-267.514.272v55.076l-47.644-27.54 47.644-27.536zM0 562.32l45.972 26.575L0 615.47v-53.148zm668.912.93l44.378 25.645-44.378 25.651V563.25zm-400.861.283l43.879 25.362-43.879 25.362v-50.724zm-149.204.386v49.952l-43.21-24.976 43.21-24.976zm133.487.327v49.3l-42.647-24.65 42.647-24.65zm-117.4.263l42.204 24.386-42.203 24.398v-48.784zm649.153 4.85v39.072l-33.798-19.536 33.798-19.535zm23.954 3.332l28.027 16.204-28.027 16.205v-32.41zm103.962 6.661v19.089l-16.514-9.546 16.514-9.543zm35.117 2.72l11.811 6.823-11.811 6.834v-13.656zm94.923 3.583v6.48l-5.604-3.24 5.604-3.24zm41.57 1.303l3.36 1.937-3.36 1.943v-3.88zm90.577 1.359v1.165l-1.016-.587 1.016-.578zm-584.645-67.945v59.787l-51.718-29.894 51.718-29.893zM466 520.451l51.575 29.814L466 580.08v-59.63zm134.132.795l50.218 29.02-50.218 29.025v-58.045zm-144.829.11v57.815l-50.008-28.906 50.008-28.908zm-121.383 1.87l46.789 27.04-46.79 27.044v-54.083zm-281.022.527v53.028L7.025 550.265l45.872-26.512zm267.06.5v52.029l-45.003-26.017 45.002-26.013zm-252.624.3l44.486 25.712-44.486 25.71v-51.422zm653.032.774v49.88l-43.138-24.942 43.138-24.938zm-518.795.2l42.805 24.738-42.805 24.743v-49.482zm-16.096.125v49.224l-42.583-24.61 42.583-24.614zm552.213 2.328l38.567 22.285-38.567 22.291V527.98zm111.074 6.51v31.556l-27.3-15.78 27.3-15.776zm28.241 3.264l21.645 12.511-21.645 12.509v-25.02zm100.521 5.242v14.545l-12.568-7.276 12.568-7.27zm37.227 1.817l9.436 5.452-9.436 5.45v-10.902zm93.969 2.487v5.934l-5.122-2.969 5.122-2.965zm41.558.721l3.882 2.244-3.882 2.25v-4.494zm90.945 1.321v1.853l-1.605-.93 1.605-.923zm43.865.637l.484.286-.484.284v-.57zM532.75 481.672l51.841 29.96-51.84 29.964v-59.924zm-10.127.216v59.492l-51.462-29.747 51.462-29.745zm133.084 1.032v57.429l-49.687-28.716 49.687-28.713zm-255.542.657l48.555 28.056-48.555 28.058v-56.114zm267.964 1.052l46.727 27.004-46.727 27.012V484.63zm-280.762 0v54.01l-46.722-27.006 46.722-27.004zm-387.295.558l45.756 26.446L.073 538.084v-52.897zm268.045 1.213l43.672 25.233-43.672 25.239V486.4zm-149.26.23v50.008l-43.254-25.005 43.255-25.002zm133.49.325v49.361l-42.696-24.683 42.697-24.678zm-117.43.26l42.25 24.418-42.25 24.42v-48.838zm650.547 2.498v43.842l-37.928-21.922 37.928-21.92zm20.912 2.837l33.01 19.083-33.01 19.085V492.55zm107.56 6.189v25.79l-22.312-12.896 22.313-12.894zm31.154 2.553l17.894 10.34-17.894 10.347v-20.687zm98.91 3.708v13.274l-11.479-6.641 11.479-6.633zm37.6 1.207l9.39 5.426-9.39 5.429v-10.855zm94.27 1.925v7.004l-6.062-3.503 6.062-3.5zm40.998.833l4.618 2.668-4.618 2.67v-5.338zm91.129 1.853v1.633l-1.418-.818 1.418-.815zm-718.949-66.846v58.06l-50.221-29.029 50.221-29.031zm11.254.318l49.69 28.713-49.69 28.716V444.29zm-133.41.459l48.89 28.254-48.89 28.257V444.75zm-12.501.929v54.653l-47.282-27.328 47.282-27.325zm266.58 1.335v51.98l-44.962-25.99 44.962-25.99zm-386.011.748l43.669 25.242-43.67 25.242V447.76zm-15.945.862v48.757l-42.183-24.377 42.183-24.38zm-267.429.129v48.502L9.632 473.003l41.955-24.251zm685.163.336l41.383 23.915-41.383 23.915v-47.83zm-668.279.18l41.069 23.735-41.069 23.734V449.27zm134.021.597l40.033 23.138-40.033 23.135v-46.273zm-17.981.193v45.893l-39.694-22.948 39.694-22.945zm665.975 4.17v37.554l-32.484-18.779 32.484-18.776zm24.494 2.752l27.718 16.023-27.718 16.023V456.98zm104.971 4.546v22.957l-19.843-11.48 19.843-11.477zm32.292 1.683l16.949 9.794-16.949 9.791V463.21zm98.887 2.656v14.279l-12.352-7.141 12.352-7.138zm36.941 1.066l10.498 6.072-10.498 6.069v-12.14zm94.903 2.119v7.91l-6.85-3.957 6.85-3.953zm40.703 1.224l4.714 2.729-4.714 2.726v-5.455zm90.992 2.197v1.064l-.917-.532.917-.532zm-840.397-65.42l47.27 27.322-47.27 27.322v-54.644zm120.543.16v54.324l-47.002-27.162 47.002-27.161zm-133.91.395v53.534l-46.308-26.767 46.308-26.767zm147.65.494l45.447 26.273-45.446 26.268V408.1zm-266.533 1.423l42.99 24.85-42.99 24.85v-49.7zm-16.577 1.177v47.346l-40.955-23.673 40.955-23.673zm400.624.705v45.937l-39.74-22.969 39.74-22.968zm-783.454.929l38.13 22.04-38.13 22.042v-44.082zm267.444.163l37.849 21.876-37.849 21.87v-43.746zm-19.657.582v42.589l-36.845-21.295 36.845-21.294zm-133.811.228v42.127l-36.445-21.06 36.445-21.067zm688.817.307l35.917 20.76-35.917 20.759v-41.52zm-668.38 0l35.922 20.76-35.923 20.759v-41.52zm778.938 4.339v32.841l-28.401-16.42 28.401-16.421zm26.697 1.858l25.185 14.562-25.185 14.557v-29.12zm104.204 2.954v23.217l-20.08-11.609 20.08-11.608zm31.924 1.303l17.833 10.305-17.833 10.3v-20.605zm99.654 2.34v15.933l-13.784-7.968 13.784-7.965zm36.168 1.37l11.397 6.595-11.397 6.595v-13.19zm94.935 3.083v7.019l-6.062-3.507 6.062-3.512zm41.316 1.4l3.66 2.112-3.66 2.107v-4.22zm-748.827-62.236l44.489 25.719-44.489 25.712v-51.43zm-15.043.249v50.93l-44.057-25.46 44.057-25.47zm133.157.903v49.133l-42.5-24.566 42.5-24.567zm-250.83.514l41.61 24.053-41.61 24.046v-48.1zm267.802.777l40.263 23.276-40.263 23.263v-46.539zm-285.262.34v45.87l-39.688-22.934 39.688-22.937zm-114.183 2.404l35.52 20.532-35.52 20.528v-41.06zm513.5.564v39.933l-34.548-19.965 34.548-19.968zm-534.911.35v39.232l-33.932-19.614 33.932-19.618zm-110.984 1.315l31.655 18.303-31.655 18.29v-36.593zm668.404.041l31.591 18.262-31.591 18.255v-36.517zm-825.556.006v36.5l-31.576-18.244 31.576-18.256zm23.68.304l31.057 17.952-31.058 17.948v-35.9zm109.775.082v35.74l-30.917-17.87 30.917-17.87zm800.616 2.492v30.744l-26.595-15.366 26.595-15.378zm27.531 1.224l24.479 14.154-24.479 14.147v-28.3zm104.117 2.3v23.707l-20.51-11.853 20.51-11.854zm31.53 1.116l18.571 10.738-18.571 10.732v-21.47zm99.75 3.033v15.404l-13.332-7.7 13.332-7.704zm36.764 1.89l10.057 5.815-10.057 5.811V389.93zm94.018 3.118v5.388l-4.65-2.691 4.65-2.697zm42.247 1.37l2.285 1.327-2.285 1.32v-2.647zm-765.253-61.169v47.726l-41.281-23.86 41.281-23.866zm17.24.34l40.686 23.526-40.686 23.512v-47.039zm-133.291.68l39.527 22.846-39.527 22.84v-45.686zm-18.7.85v43.98l-38.05-21.984 38.05-21.996zm267.222.225v43.533l-37.659-21.762 37.66-21.77zm20.156 1.224l35.54 20.547-35.54 20.537v-41.084zm-400.393 1.099l33.634 19.448-33.634 19.433v-38.881zM917 338.902v36.415l-31.507-18.203 31.506-18.212zm-534.72.018v36.38l-31.462-18.186 31.463-18.194zm558.862 1.002l29.738 17.192-29.738 17.177v-34.37zm-667.65 1.259l27.56 15.933-27.56 15.933V341.18zm775.47.69v30.477l-26.36-15.234 26.36-15.243zm-802.097.067v30.349l-26.25-15.173 26.25-15.176zm829.647.92l24.656 14.256-24.656 14.244v-28.5zm-1069.396.018l24.627 14.238-24.627 14.232v-28.47zm133.743.117l24.42 14.12-24.42 14.113v-28.233zm-28.351.125v27.977L88.3 357.114l24.207-13.996zm1068.167 2.157v23.67l-20.471-11.831 20.471-11.84zm31.848 1.633l17.652 10.206-17.652 10.197v-20.403zm98.586 3.982v12.433l-10.752-6.21 10.752-6.223zm38.334 1.645l7.918 4.579-7.918 4.578v-9.157zm92.707 2.934v3.287l-2.842-1.642 2.842-1.645zm43.246 1.008l1.086.637-1.086.622v-1.26zm-766.888-59.708v43.419l-37.563-21.71 37.563-21.709zm-114.02.245l37.137 21.464-37.136 21.467v-42.93zm133.873.333l36.55 21.131-36.55 21.125v-42.256zm-154.06.342v41.575l-35.967-20.786L584.3 297.69zm266.702 1.122v39.331l-34.026-19.664 34.026-19.667zm22.31.757l32.718 18.91-32.718 18.905v-37.815zm-400.913.193l32.376 18.717L472.4 337.19v-37.43zm511.03 1.218v35.001l-30.28-17.502 30.28-17.499zm-534.879.313v34.375l-29.746-17.189 29.746-17.186zm559.74.532l28.813 16.654-28.813 16.652v-33.306zm107.444 1.525v30.262l-26.168-15.133 26.168-15.129zm-774.47.821l24.756 14.308-24.756 14.306V304.17zm802.253.35l24.152 13.958-24.152 13.955v-27.912zm-831.057.941v26.031l-22.52-13.014 22.52-13.017zm-102.99 1.979l19.097 11.038-19.097 11.042v-22.08zm1037.39.333v21.408l-18.513-10.703 18.513-10.705zm-1069.574.289v20.833l-18.017-10.417 18.017-10.416zm-133.969.505v19.825l-17.15-9.914 17.15-9.91zm33.162.056l17.045 9.855-17.045 9.853v-19.708zm1203.756 1.169l15.034 8.686-15.034 8.684v-17.37zm96.928 3.827v9.712l-8.406-4.853 8.406-4.859zm39.825 1.505l5.805 3.354-5.805 3.357v-6.711zm91.657 2.305v2.095l-1.81-1.046 1.81-1.049zm43.753.707l.596.342-.596.345v-.687zm-880.37-58.533l35.024 20.243-35.024 20.245v-40.488zm-21.365.272v39.944l-34.553-19.973 34.553-19.971zm133.52.277v39.39l-34.079-19.696 34.079-19.694zm22.067.389l33.393 19.305-33.393 19.304v-38.609zm110.897.844v36.92l-31.944-18.46 31.944-18.46zm-377.646.2l31.586 18.26-31.586 18.262v-36.523zm401.135.186l31.27 18.075-31.27 18.074v-36.149zm-425.36 1.06v34.031l-29.431-17.016 29.431-17.014zm534.684.053v33.932l-29.353-16.97 29.353-16.962zm25.32.57l28.36 16.392-28.36 16.391v-32.783zm106.81 2.098v28.587l-24.727-14.293 24.727-14.294zm-773.77.368l24.1 13.926-24.1 13.928V265.92zm802.784 1.257l21.916 12.669-21.916 12.669v-25.338zm-832.18.306v24.725l-21.394-12.362 21.393-12.363zm-101.817 2.709l16.703 9.654-16.703 9.656v-19.31zm1035.396 1.025v17.257l-14.931-8.628 14.931-8.629zm-1069.48.126v17.008l-14.716-8.505 14.716-8.503zm-98.102 1.432l12.238 7.07-12.238 7.077v-14.147zm1203.263.312l11.7 6.759-11.7 6.76v-13.519zm-1239.85.012v13.496l-11.678-6.75 11.677-6.746zm1334.86 3.284v6.925l-5.983-3.462 5.983-3.463zm41.244 1.169l3.966 2.294-3.966 2.293v-4.587zm90.845 1.598v1.4l-1.217-.704 1.217-.696zm43.958.35l.59.346-.59.344v-.69zm-902.409-57.1v37.627l-32.543-18.811 32.543-18.817zm22.967.18l32.24 18.636-32.24 18.635v-37.27zm110.45.272v36.728l-31.775-18.364 31.775-18.364zm23.518.237l31.358 18.127-31.358 18.124V223.09zm-267.172.318l30.809 17.809-30.81 17.803v-35.612zm376.98.056v35.503l-30.715-17.75 30.715-17.753zm24.251.3l30.197 17.453-30.197 17.452v-34.904zm-425.742.495v33.916l-29.341-16.958 29.341-16.958zm534.406.523v32.873l-28.439-16.438 28.44-16.435zm26.195 1.028l26.659 15.407-26.659 15.407v-30.814zm-667.738 1.113l24.735 14.294-24.735 14.294v-28.588zm-28.974 1.563v25.461l-22.027-12.73 22.027-12.73zm801.988.123v25.216l-21.814-12.608 21.814-12.608zm31.17 2.007l18.341 10.6-18.34 10.601v-21.2zm-935.056 1.172l16.306 9.429-16.306 9.423v-18.852zm-34.545 1.502v15.854l-13.72-7.927 13.72-7.927zm1068.795 1.06v13.733l-11.882-6.866 11.882-6.866zm-1165.767 1.184l9.841 5.683-9.841 5.683v-11.366zm1203.397.543l8.899 5.14-8.9 5.14v-10.28zm-1241.856.255v9.764l-8.452-4.88 8.452-4.884zm-94.223.914l6.862 3.97-6.862 3.969v-7.939zm1429.641 1.406v5.133l-4.439-2.568 4.44-2.565zm42.152.955l2.784 1.61-2.784 1.607v-3.217zm90.41.982v1.256l-1.085-.628 1.085-.628zm-701.14-55.55l30.349 17.542-30.348 17.54v-35.082zm-24.454.227v34.636l-29.963-17.32 29.963-17.316zm133.615.1v34.437l-29.788-17.222 29.788-17.215zm-242.627.035l29.724 17.18-29.724 17.19V185.4zm-24.794.096v34.171l-29.562-17.087 29.562-17.084zm292.294.164l29.28 16.92-29.28 16.924V185.66zm-401.019.017l29.248 16.903-29.248 16.906v-33.809zm-25.398.585v32.646l-28.232-16.328 28.232-16.318zm534.144.973v30.694l-26.554-15.349 26.554-15.345zm-640.934 1.017l24.797 14.328-24.797 14.335v-28.663zm668.611.406l24.094 13.922-24.094 13.926v-27.848zm-697.436.976v25.899L490.53 202.58l22.412-12.946zm800.563 2.588v20.725l-17.932-10.367 17.932-10.358zm-902.762.634l16.832 9.724-16.832 9.733v-19.457zm936.344 1.073l14.982 8.651-14.982 8.658v-17.31zm-970.652.605v16.096l-13.922-8.05 13.922-8.046zm1067.782 2.828v10.443l-9.04-5.225 9.04-5.218zm-1164.456.164l8.755 5.054-8.755 5.064v-10.118zm-39.364 1.11v7.898l-6.836-3.954 6.836-3.944zm1243.099.012l6.8 3.932-6.8 3.945v-7.877zM147.584 200.12l4.255 2.46-4.255 2.463v-4.923zm-41.9.307v4.318l-3.73-2.165 3.73-2.153zm1470.307.225v3.866l-3.34-1.938 3.34-1.928zm42.726.68l2.165 1.248-2.165 1.257v-2.504zm-610.283-53.782l28.378 16.4-28.378 16.398V147.55zm107.987.088v32.628l-28.226-16.315 28.226-16.313zm-133.7.038v32.552l-28.159-16.277 28.16-16.275zm-107.528.622l27.082 15.653-27.082 15.658v-31.31zm267.359.015l27.064 15.638-27.064 15.649v-31.287zm-294.08.362v30.563L822.03 163.95l26.442-15.276zm-106.565.304l25.909 14.972-25.909 14.98v-29.952zm-27.377.152v29.642L688.9 163.951l25.631-14.82zm-105.55 1.151l23.659 13.669-23.659 13.674v-27.343zm639.586.012v27.31l-23.63-13.653 23.63-13.657zm-668.892.885v25.552l-22.1-12.78 22.1-12.772zm698.668.798l20.716 11.974-20.716 11.976v-23.95zm-801.007 1.826l17.564 10.148-17.564 10.15v-20.298zm902.033 1.473v17.352l-15.017-8.677 15.017-8.675zm-935.781.084v17.184l-14.862-8.593 14.862-8.59zm971.33 1.642l12.024 6.949-12.024 6.957v-13.906zm-1068.489 1.599l9.264 5.35-9.264 5.358v-10.708zm1164.062 1.098v8.5l-7.352-4.248 7.352-4.252zm-1203.27.328v7.853l-6.795-3.93 6.794-3.923zm1243.597.835l5.347 3.089-5.347 3.09v-6.179zm-1335.99 1.336l3.032 1.753-3.032 1.756v-3.51zm1427.784.198v3.106l-2.69-1.551 2.69-1.555zm-1470.709.476v2.154l-1.868-1.075 1.868-1.079zm904.105-52.686l26.186 15.132-26.186 15.141v-30.273zm-27.208.187v29.899l-25.87-14.954 25.87-14.945zm133.484.327v29.239l-25.293-14.621 25.293-14.618zm-239.55.193l24.966 14.425-24.966 14.434v-28.86zm-28.212.523v27.819l-24.073-13.917 24.073-13.902zm295.89.038l23.993 13.864-23.994 13.87v-27.734zm-400.651.657l22.858 13.207-22.858 13.215v-26.422zm-29.423.181v26.06l-22.538-13.034 22.538-13.026zm-103.933.369l21.904 12.657-21.904 12.666v-25.323zm-30.214.452v24.421l-21.122-12.216 21.122-12.205zm667.864.897v22.63l-19.578-11.322 19.578-11.308zM544 114.87l18.084 10.448L544 135.772V114.87zm802.37.54l17.15 9.908-17.15 9.917V115.41zm-835.605.73v18.364l-15.883-9.186 15.883-9.178zm934.377 2.347v13.665l-11.823-6.834 11.823-6.831zm-1032.35.669l10.68 6.162-10.68 6.177v-12.34zm1069.831.719l9.416 5.443-9.416 5.452v-10.895zm-1108.1.718v9.464l-8.187-4.739 8.187-4.725zm1202.168 1.575v6.303l-5.443-3.153 5.443-3.15zm41.41.839l4.007 2.311-4.007 2.326v-4.637zm-1336.63.222l3.619 2.089-3.62 2.098v-4.187zm-42.712.979v2.226l-1.923-1.116 1.923-1.11zm875.958-50.878v26.72L1091.6 86.688l23.116-13.358zm29.288.248l22.693 13.11-22.693 13.116V73.578zm-133.431.418l21.966 12.692-21.966 12.699V73.996zm-30.036.204v24.976l-21.607-12.488L980.538 74.2zm267.298.103V99.08l-21.44-12.392 21.44-12.385zm-370.22.929l19.82 11.456-19.82 11.457V75.232zm401.023 0l19.827 11.456-19.827 11.457V75.232zm-432.51.242v22.434l-19.403-11.22 19.403-11.214zm-101.998.1l19.234 11.114-19.234 11.118V75.574zm-31.77.055v22.118l-19.128-11.059 19.129-11.059zm-101.454.719l17.888 10.34-17.888 10.347V76.348zm-33.016.651v19.378l-16.759-9.689L577.891 77zm801.765.518v18.352l-15.871-9.18 15.871-9.172zm34.756 1.347l13.536 7.824-13.536 7.83V78.865zm-935.492.426l12.81 7.398-12.81 7.401V79.29zm-36.822 1.394v12.012l-10.39-6.008 10.39-6.004zm1069.017.678v10.653l-9.223-5.327 9.223-5.326zm39.084 1.174l7.194 4.152-7.194 4.158v-8.31zM347.698 83.538l5.455 3.15-5.455 3.153v-6.303zm1295.398.76v4.786l-4.142-2.396 4.142-2.39zm-1337.091.573v3.64l-3.152-1.823 3.152-1.817zm874.428-48.225v22.822l-19.748-11.41 19.748-11.412zm-102.182.172l19.447 11.24-19.447 11.24v-22.48zm133.683.009l19.423 11.232-19.423 11.228v-22.46zm-165.502.38v21.71l-18.772-10.858 18.772-10.852zm-101.207.742l17.489 10.11-17.489 10.106V37.95zm368.053.137v19.945l-17.258-9.972 17.258-9.973zm-401.281.436v19.076l-16.496-9.54 16.496-9.536zm-233.696.163l16.21 9.374-16.21 9.37V38.685zm133.715.082l16.087 9.292-16.087 9.291V38.767zm-33.854.032v18.519l-16.017-9.26 16.017-9.259zm-133.694.035v18.449l-15.962-9.224 15.962-9.225zm702.327.047l15.87 9.178-15.87 9.177V38.881zm-801.526.926l14.273 8.252-14.273 8.248v-16.5zm-35.616 1V55.31L497.1 48.059l12.553-7.253zm935.603.216v14.071l-12.174-7.035 12.174-7.036zm37.017.99l10.463 6.046-10.463 6.045v-12.09zM413.665 43.401l8.064 4.658-8.064 4.657V43.4zm1163.446.783v7.749l-6.7-3.874 6.7-3.875zm-1203.4.552v6.642l-5.75-3.32 5.75-3.322zm1244.007.342l5.155 2.98-5.155 2.98v-5.96zM282.063 46.992l1.845 1.067-1.845 1.063v-2.13zm-43.776.777v.579l-.505-.29.505-.289zM1146.136 0l16.318 9.429-16.318 9.429V0zm99.949.067v18.715l-16.187-9.353 16.187-9.362zm-133.738.114v18.493l-16.003-9.245L1112.347.18zm167.69.216l15.627 9.032-15.627 9.031V.397zm-267.122.395l14.934 8.637-14.934 8.634V.792zM612.127 1.2l14.225 8.228-14.225 8.225V1.2zm365.954 0v16.45l-14.229-8.222L978.081 1.2zm-401.112.146v16.16L562.99 9.43l13.978-8.082zm133.662.023v16.114L696.697 9.43l13.934-8.059zm668.26.205v15.708l-13.583-7.854 13.584-7.854zm-632.837.064l13.476 7.79-13.476 7.79V1.638zm97.953.251v15.074l-13.04-7.535 13.04-7.539zm35.876.024l13 7.515-13 7.512V1.914zm534.981.476l12.174 7.039-12.174 7.036V2.39zm-935.346.675l11.012 6.364-11.012 6.355V3.065zm1031.597 1.037v10.65l-9.223-5.323 9.223-5.327zM441.57 4.333v10.189l-8.808-5.093 8.808-5.096zm1108.456.625l7.729 4.47-7.729 4.471V4.96zm93.292 1.68v5.572l-4.81-2.781 4.81-2.79zm-1295.37.07l4.7 2.72-4.7 2.718V6.71zm-42.01 1.02v3.398l-2.94-1.697 2.94-1.7zM215.653 9.11l.554.319-.554.315V9.11zm1436.864 812.203l5.076 2.934-5.076 2.93v-5.864zm-41.351.304v5.248l-4.544-2.618 4.544-2.63zm-91.777.637l3.439 1.993-3.439 1.984v-3.977zm-42.483.383v3.22l-2.79-1.61 2.79-1.61zm-90.59.669l1.624.94-1.623.936v-1.876zm-43.624.254v1.368l-1.18-.681 1.18-.687zM1678 782.987v5.245l-4.536-2.62 4.536-2.625zm-91.89.442l3.776 2.182-3.777 2.183v-4.365zm-42.227.33v3.71l-3.208-1.858 3.208-1.852zm-90.899.622l2.131 1.23-2.13 1.233v-2.463zm-43.35.368v1.727l-1.495-.865 1.495-.862zm243.286-40.006l3.87 2.239-3.87 2.235v-4.474zm-42.122.249v3.976l-3.44-1.986 3.44-1.99zm-91.082.567l2.458 1.423-2.458 1.423v-2.846zm-43.137.374v2.095l-1.813-1.046 1.813-1.05zm-89.953.651l.689.398-.689.397v-.795zm291.012-40.222v3.977l-3.444-1.99 3.444-1.987zm-91.193.38l2.782 1.607-2.782 1.61v-3.217zm-42.924.374v2.463l-2.134-1.23 2.134-1.233zm-90.221.55l1.182.683-1.182.68v-1.364zm-43.976.362v.645l-.563-.324.563-.321zm243.958-39.925l2.784 1.61-2.784 1.616v-3.226zm-42.81.193v2.846l-2.458-1.429 2.457-1.417zm-90.44.558l1.497.86-1.498.867v-1.727zm-43.766.363v1.002l-.872-.506.872-.496zm201.045-39.55v2.845l-2.463-1.428 2.463-1.417zm-90.542.374l1.81 1.043-1.81 1.054v-2.097zm-43.564.362v1.361l-1.179-.68 1.18-.681zm110.404-38.992l1.81 1.043-1.81 1.052v-2.095zm-43.462.181v1.724l-1.494-.862 1.494-.862zm-89.8.538l.557.324-.557.327v-.651zm156.643-39.17v1.723l-1.494-.862 1.494-.862zm-89.844.467l.68.394-.68.398v-.792zm66.772-38.732l.867.497-.867.5v-.997zm-44.083.175v.646l-.554-.324.554-.322zm66.849-38.653v.684l-.59-.34.59-.344zM11.596 273.38l11.178 6.466-11.178 6.466V273.38zM39.81 237.39v7.65l-6.62-3.825 6.62-3.825zM14.301 200.81l3.065 1.77-3.065 1.774v-3.544zm67.646-37.225l.639.366-.64.37v-.736zm-44.203.126v.488l-.423-.248.423-.24z" opacity=".05"/>
</svg>
